<svg width="286" height="250.00000000000003" xmlns="http://www.w3.org/2000/svg">
 <g>
  <title>background</title>
  <rect fill="#fff" id="canvas_background" height="252" width="288" y="-1" x="-1"/>
  <g display="none" overflow="visible" y="0" x="0" height="100%" width="100%" id="canvasGrid">
   <rect fill="url(#gridpattern)" stroke-width="0" y="0" x="0" height="100%" width="100%"/>
  </g>
 </g>
 <g>
  <title>Layer 1</title>
  <path id="svg_17" d="m62.125006,66.625005c0,0 -0.2994,-22.75 22.49999,-22.75c22.7994,0 117,0 117,0c0,0 22.24999,0.24445 22.24999,22.75c0,22.50555 0.25,116.49999 0.25,116.49999c0,0 -0.25,23 -22.49999,23c-22.25,0 -117,-0.25 -117,-0.25c0,0 -22.74999,-0.21531 -22.74999,-22.75c0,-22.53469 0.25,-116.49999 0.25,-116.49999z" fill-opacity="null" stroke-opacity="null" stroke-width="20" stroke="#000" fill="none"/>
  <g id="svg_18">
   <line stroke-linecap="null" stroke-linejoin="null" id="svg_9" y2="167.134603" x2="184.191333" y1="167.134603" x1="102.475297" fill-opacity="null" stroke-opacity="null" stroke-width="20" stroke="#000" fill="none"/>
   <line stroke-linecap="null" stroke-linejoin="null" id="svg_10" y2="82.865387" x2="183.52467" y1="82.865387" x1="101.808634" fill-opacity="null" stroke-opacity="null" stroke-width="20" stroke="#000" fill="none"/>
   <line stroke-linecap="null" stroke-linejoin="null" id="svg_11" y2="124.97836" x2="184.191341" y1="124.97836" x1="102.475306" fill-opacity="null" stroke-opacity="null" stroke-width="20" stroke="#000" fill="none"/>
  </g>
 </g>
</svg>
